# xmcd
#
# Track frame offsets: 
#        150
#        29469
#        50543
#        72323
#        109501
#        139815
#        169641
#
# Disc length: 2349 seconds
#
# Revision: 1
# Processed by: cddbd v1.5.2PL0 Copyright (c) Steve Scherf et al.
# Submitted via: ExactAudioCopy v0.99pb3
#
DISCID=5c092b07
DTITLE=Scott O'Dell - Island of the Blue Dolphin - Disc 4 of 4
DYEAR=1960
DGENRE=Audiobook
TTITLE0=Disc 4.A
TTITLE1=Disc 4.B
TTITLE2=Disc 4.C
TTITLE3=Disc 4.D
TTITLE4=Disc 4.E
TTITLE5=Disc 4.F
TTITLE6=Disc 4.G
EXTD=Island of the Blue Dolphins by Scott O'Dell\nread by Tantoo Cardi
EXTD=nal 4 CDs
EXTT0=
EXTT1=
EXTT2=
EXTT3=
EXTT4=
EXTT5=
EXTT6=
PLAYORDER=
